#!OML:ASF F:\VICON\USERDATA\INSTALL\rory3\rory3.ASF
:FULLY-SPECIFIED
:DEGREES
50
root 0.859899 18.7634 -5.86917 7.16308 0.38289 5.97145
lowerback 12.6603 -3.83526 -5.90474
upperback 0.00315227 -6.0198 -0.894748
thorax -6.57712 -2.7609 3.42713
lowerneck -2.96292 2.80524 -0.854086
upperneck -10.0555 3.69443 -0.758716
head -2.67484 1.88469 -0.149905
rclavicle -9.79511e-014 -2.59414e-014
rhumerus -57.4113 6.64548 -83.8669
rradius 80.5981
rwrist 0.354648
rhand -36.0533 30.8244
rfingers 7.12502
rthumb -9.16125 1.04339
lclavicle -9.79511e-014 -2.59414e-014
lhumerus -24.3281 -24.1534 87.0146
lradius 123.542
lwrist 21.8718
lhand -38.2698 1.39519
lfingers 7.12502
lthumb -11.2995 31.0708
rfemur -34.8653 5.29828 12.2158
rtibia 17.7148
rfoot 5.52887 -16.6093
rtoes -10.5739
lfemur 22.3995 -3.61149 -31.1004
ltibia 37.1398
lfoot 30.8656 -1.80387
ltoes -15.1017
51
root 0.844575 18.6807 -5.3499 7.23333 -0.251331 5.37967
lowerback 12.4143 -3.5872 -5.5187
upperback -0.0380293 -5.60631 -0.689791
thorax -6.53657 -2.57037 3.34506
lowerneck -2.64328 2.71257 -0.785331
upperneck -10.0919 3.55709 -0.883894
head -2.74054 1.81789 -0.204947
rclavicle 6.02318e-014 2.13694e-014
rhumerus -55.8716 6.96951 -83.6897
rradius 79.3754
rwrist 0.0739016
rhand -35.7451 31.2288
rfingers 7.12502
rthumb -8.86385 1.43497
lclavicle 6.02318e-014 2.13694e-014
lhumerus -25.4296 -24.1949 87.3544
lradius 122.012
lwrist 21.9705
lhand -38.2102 3.47273
lfingers 7.12502
lthumb -11.242 33.1515
rfemur -33.8804 4.96456 13.8999
rtibia 17.3413
rfoot 6.04648 -17.0144
rtoes -10.3312
lfemur 20.2553 -2.33786 -30.1444
ltibia 42.7659
lfoot 32.1661 -2.54077
ltoes -13.6324
52
root 0.838167 18.6269 -4.82609 7.04336 -0.85966 4.57432
lowerback 12.6354 -3.35578 -4.80436
upperback -0.160636 -5.19567 -0.416618
thorax -6.86498 -2.37495 3.1937
lowerneck -2.31327 2.65716 -0.794562
upperneck -9.82013 3.47169 -1.01516
head -2.70603 1.77918 -0.245959
rclavicle -5.08889e-014 -1.94809e-014
rhumerus -54.4608 7.57155 -83.5298
rradius 78.3074
rwrist -0.386281
rhand -35.8772 31.8035
rfingers 7.12502
rthumb -8.9913 2.01507
lclavicle -5.08889e-014 -1.94809e-014
lhumerus -26.8555 -24.1561 87.9208
lradius 120.512
lwrist 22.4591
lhand -38.0231 5.40294
lfingers 7.12502
lthumb -11.0616 35.0915
rfemur -32.3506 4.61482 15.7755
rtibia 17.1579
rfoot 6.85109 -16.3382
rtoes -13.3366
lfemur 18.2118 -1.12295 -29.0847
ltibia 48.3453
lfoot 33.2048 -3.04401
ltoes -11.7109
53
root 0.834463 18.5203 -4.30826 6.35251 -1.29715 3.39136
lowerback 13.1011 -3.12471 -3.58883
upperback 0.0204635 -4.70264 -0.133116
thorax -7.04498 -2.16763 2.75805
lowerneck -2.25446 2.54688 -0.831588
upperneck -9.34586 3.32852 -1.00325
head -2.55831 1.70744 -0.229017
rclavicle 5.04665e-014 -8.69683e-015
rhumerus -52.9201 7.99759 -83.3553
rradius 77.6591
rwrist -1.10479
rhand -36.4434 31.5745
rfingers 7.12502
rthumb -9.53765 1.81033
lclavicle 5.04665e-014 -8.69683e-015
lhumerus -28.1503 -24.2788 88.465
lradius 118.992
lwrist 23.0243
lhand -37.4646 6.05262
lfingers 7.12502
lthumb -10.5228 35.7692
rfemur -30.212 4.14523 18.0919
rtibia 17.2173
rfoot 8.14552 -14.7713
rtoes -10.9755
lfemur 17.4092 0.149234 -27.4049
ltibia 53.8502
lfoot 32.6776 -1.83987
ltoes -8.2539
54
root 0.826361 18.4124 -3.78079 5.5778 -1.91856 2.07285
lowerback 13.5636 -2.83243 -2.34181
upperback 0.252366 -4.11033 0.161338
thorax -7.16038 -1.9158 2.2857
lowerneck -2.38671 2.4491 -0.796232
upperneck -8.53788 3.20724 -0.992934
head -2.26582 1.64245 -0.218915
rclavicle -8.09364e-014 2.93207e-015
rhumerus -51.4456 8.45861 -83.2911
rradius 77.6275
rwrist -2.08914
rhand -36.1199 29.687
rfingers 7.12502
rthumb -9.2255 -0.0911391
lclavicle -8.09364e-014 2.93207e-015
lhumerus -29.5097 -24.4001 89.0056
lradius 117.494
lwrist 23.4435
lhand -37.1301 6.44928
lfingers 7.12502
lthumb -10.2002 36.182
rfemur -28.3081 3.69863 20.3362
rtibia 18.2545
rfoot 10.0363 -10.7382
rtoes -1.17908
lfemur 16.4706 1.72966 -25.3572
ltibia 59.1197
lfoot 32.511 -1.46265
ltoes -8.95126
55
root 0.82156 18.3316 -3.25103 4.84769 -2.67306 0.741096
lowerback 14.1194 -2.56842 -1.17725
upperback 0.476751 -3.55219 0.552691
thorax -7.30471 -1.67535 1.96407
lowerneck -2.33321 2.39458 -0.915308
upperneck -7.9375 3.14182 -0.960671
head -2.08077 1.61028 -0.182594
rclavicle -4.81975e-015 -1.13789e-014
rhumerus -49.6985 9.33297 -83.2048
rradius 77.5231
rwrist -2.39427
rhand -35.6879 28.5283
rfingers 7.12502
rthumb -8.80865 -1.2679
lclavicle -4.81975e-015 -1.13789e-014
lhumerus -31.0396 -24.1852 89.5265
lradius 116.177
lwrist 23.8013
lhand -37.3885 6.29692
lfingers 7.12502
lthumb -10.4494 36.0172
rfemur -26.8423 3.28058 22.4847
rtibia 20.1581
rfoot 8.29367 -4.50557
rtoes 2.07284
lfemur 15.0676 3.54846 -23.0694
ltibia 64.4883
lfoot 33.3821 -2.13496
ltoes -24.1188
56
root 0.820071 18.2431 -2.73299 4.25618 -3.26348 0.304698
lowerback 14.7503 -2.39742 -0.739455
upperback 0.646087 -3.24572 0.68927
thorax -7.50364 -1.53584 1.829
lowerneck -2.41619 2.38986 -0.92567
upperneck -7.43666 3.13413 -1.08656
head -1.90126 1.60673 -0.213622
rclavicle 4.92303e-014 -5.76476e-015
rhumerus -47.7719 10.2719 -83.1464
rradius 77.5478
rwrist -2.1171
rhand -36.2507 28.2134
rfingers 7.12502
rthumb -9.35174 -1.55918
lclavicle 4.92303e-014 -5.76476e-015
lhumerus -32.4272 -23.8059 89.8961
lradius 114.843
lwrist 24.1357
lhand -37.2354 6.09563
lfingers 7.12502
lthumb -10.3017 35.8233
rfemur -26.0481 2.66463 23.5002
rtibia 22.7341
rfoot 3.50343 0.51803
rtoes 5.07879
lfemur 14.1366 5.07802 -21.771
ltibia 69.6144
lfoot 34.1218 -0.692905
ltoes -22.7931
57
root 0.814276 18.0696 -2.25331 3.89096 -3.90285 0.210778
lowerback 15.1147 -2.14496 -0.716936
upperback 0.873456 -2.90254 0.759838
thorax -7.47089 -1.3701 1.83045
lowerneck -2.74276 2.38515 -1.02124
upperneck -7.04868 3.13643 -1.09799
head -1.72089 1.60762 -0.19264
rclavicle 8.79622e-015 2.40032e-014
rhumerus -45.6359 11.0722 -82.9421
rradius 77.9351
rwrist -1.90147
rhand -36.7693 28.9985
rfingers 7.12502
rthumb -9.85209 -0.750959
lclavicle 8.79622e-015 2.40032e-014
lhumerus -33.6396 -23.4604 90.2186
lradius 113.479
lwrist 24.3017
lhand -36.7226 5.62474
lfingers 7.12502
lthumb -9.80704 35.3764
rfemur -25.15 2.81742 23.975
rtibia 25.9199
rfoot 1.01346 -1.75732
rtoes 8.9559
lfemur 12.2397 6.62127 -20.8202
ltibia 75.0179
lfoot 32.5259 -0.562307
ltoes -16.2286
58
root 0.801025 17.9428 -1.76594 3.67003 -4.45059 0.0553551
lowerback 15.2901 -1.86801 -0.696316
upperback 1.2133 -2.52677 0.837397
thorax -7.21264 -1.19242 1.82009
lowerneck -3.22554 2.36563 -0.892633
upperneck -6.92956 3.1048 -1.32322
head -1.59404 1.59033 -0.275034
rclavicle 8.22472e-015 -1.59028e-014
rhumerus -43.1658 11.5156 -82.6387
rradius 78.5865
rwrist -1.93581
rhand -36.4878 29.7778
rfingers 7.12502
rthumb -9.58052 0.0156549
lclavicle 8.22472e-015 -1.59028e-014
lhumerus -34.5872 -23.2602 90.3329
lradius 112.456
lwrist 24.4053
lhand -36.785 7.15211
lfingers 7.12502
lthumb -9.86721 36.9009
rfemur -24.9041 3.78437 24.3907
rtibia 29.5739
rfoot -3.37665 -2.89705
rtoes 7.11403
lfemur 9.54934 8.02267 -19.7804
ltibia 80.4465
lfoot 31.4372 -1.81391
ltoes -9.14791
59
root 0.782576 17.8872 -1.26356 3.28488 -5.04131 -0.139033
lowerback 15.993 -1.59622 -0.620049
upperback 1.43185 -2.1505 0.903904
thorax -7.37999 -1.00969 1.78918
lowerneck -3.33532 2.36669 -0.700697
upperneck -7.2323 3.08305 -1.65967
head -1.66381 1.58173 -0.412296
rclavicle -2.18663e-014 -2.68359e-015
rhumerus -40.7131 12.0555 -82.4233
rradius 79.4368
rwrist -2.05665
rhand -36.485 29.7768
rfingers 7.12502
rthumb -9.57773 0.0144887
lclavicle -2.18663e-014 -2.68359e-015
lhumerus -35.8224 -22.956 90.5527
lradius 111.644
lwrist 24.3432
lhand -37.1992 9.80745
lfingers 7.12502
lthumb -10.2668 39.5369
rfemur -25.2671 4.75183 24.9353
rtibia 33.117
rfoot -5.75833 -3.89246
rtoes 5.58637
lfemur 7.88951 9.32484 -18.5897
ltibia 85.0975
lfoot 30.5573 -1.20655
ltoes -10.6866
60
root 0.771351 17.7861 -0.790293 2.86708 -5.38061 -0.356846
lowerback 16.9379 -1.46151 -0.378322
upperback 1.58494 -1.92385 0.960636
thorax -7.7507 -0.902446 1.69171
lowerneck -3.01163 2.48661 -0.401354
upperneck -7.90938 3.20002 -2.12203
head -1.92541 1.64677 -0.620249
rclavicle -1.10077e-014 1.07344e-014
rhumerus -38.2611 12.5415 -82.2797
rradius 80.3985
rwrist -1.97572
rhand -36.9164 29.7817
rfingers 7.12502
rthumb -9.99396 0.0390139
lclavicle -1.10077e-014 1.07344e-014
lhumerus -37.5126 -22.3144 90.9479
lradius 111.113
lwrist 24.0959
lhand -36.872 11.6182
lfingers 7.12502
lthumb -9.95113 41.3629
rfemur -25.1096 5.25412 25.4381
rtibia 36.4171
rfoot -7.88583 -5.74124
rtoes 6.41883
lfemur 5.41788 10.3206 -17.4924
ltibia 90.0719
lfoot 29.5419 -1.96844
ltoes -18.7248
61
root 0.755488 17.6444 -0.346042 2.88606 -5.57647 -1.22683
lowerback 17.5016 -1.43218 0.37315
upperback 1.75288 -1.71549 1.25126
thorax -7.8989 -0.820477 1.54313
lowerneck -2.50648 2.59558 -0.191497
upperneck -9.03215 3.28733 -2.62383
head -2.37067 1.70607 -0.84019
rclavicle 1.77664e-014 2.95195e-014
rhumerus -35.6756 12.9479 -82.1414
rradius 81.6174
rwrist -1.88313
rhand -37.3091 29.7641
rfingers 7.12502
rthumb -10.3728 0.0399251
lclavicle 1.77664e-014 2.95195e-014
lhumerus -39.2989 -21.301 91.4417
lradius 110.813
lwrist 23.486
lhand -37.0266 12.8614
lfingers 7.12502
lthumb -10.1003 42.599
rfemur -24.6091 5.59548 26.6339
rtibia 39.1516
rfoot -10.1926 -7.07417
rtoes 8.0667
lfemur 3.27183 11.0738 -15.5166
ltibia 94.6612
lfoot 27.7119 -1.93081
ltoes -18.512
